<svg version="1.1" viewBox="0.0 0.0 1152.0 384.0" fill="none" stroke="none" stroke-linecap="square" stroke-miterlimit="10" xmlns:xlink="http://www.w3.org/1999/xlink" xmlns="http://www.w3.org/2000/svg"><clipPath id="p.0"><path d="m0 0l1152.0 0l0 384.0l-1152.0 0l0 -384.0z" clip-rule="nonzero"/></clipPath><g clip-path="url(#p.0)"><path fill="#000000" fill-opacity="0.0" d="m0 0l1152.0 0l0 384.0l-1152.0 0z" fill-rule="evenodd"/><path fill="#3c78d8" d="m27.184114 78.61291l0 0c0 -31.311333 25.382849 -56.694183 56.694183 -56.694183l984.2235 0c15.036255 0 29.456665 5.9731197 40.088867 16.605341c10.632202 10.632221 16.605347 25.052608 16.605347 40.08884l0 226.76993c0 31.31131 -25.382812 56.694183 -56.694214 56.694183l-984.2235 0c-31.311333 0 -56.694183 -25.382874 -56.694183 -56.694183z" fill-rule="evenodd"/><path stroke="#6d9eeb" stroke-width="24.0" stroke-linejoin="round" stroke-linecap="butt" d="m27.184114 78.61291l0 0c0 -31.311333 25.382849 -56.694183 56.694183 -56.694183l984.2235 0c15.036255 0 29.456665 5.9731197 40.088867 16.605341c10.632202 10.632221 16.605347 25.052608 16.605347 40.08884l0 226.76993c0 31.31131 -25.382812 56.694183 -56.694214 56.694183l-984.2235 0c-31.311333 0 -56.694183 -25.382874 -56.694183 -56.694183z" fill-rule="evenodd"/><path fill="#000000" fill-opacity="0.0" d="m24.22941 93.845695l1103.5214 0l0 196.30432l-1103.5214 0z" fill-rule="evenodd"/><path fill="#ffffff" d="m116.121376 239.5232q-15.265625 0 -27.578125 -6.6875q-12.3125 -6.703125 -19.296875 -18.5q-6.96875 -11.8125 -6.96875 -26.65625q0 -14.828125 7.046875 -26.625q7.0625 -11.8125 19.375 -18.5q12.3125 -6.703125 27.578125 -6.703125q12.375008 0 22.593758 4.328125q10.234375 4.3125 17.28125 12.515625l-12.09375 11.375q-10.9375 -11.8125 -26.921883 -11.8125q-10.375 0 -18.578125 4.546875q-8.203125 4.53125 -12.8125 12.59375q-4.609375 8.0625 -4.609375 18.28125q0 10.234375 4.609375 18.296875q4.609375 8.0625 12.8125 12.609375q8.203125 4.53125 18.578125 4.53125q15.984383 0 26.921883 -11.953125l12.09375 11.515625q-7.046875 8.203125 -17.34375 12.53125q-10.296875 4.3125 -22.687508 4.3125zm98.93804 -79.203125q11.21875 0 20.078125 4.90625q8.859375 4.890625 13.890625 13.828125q5.046875 8.921875 5.046875 20.578125q0 11.671875 -5.046875 20.671875q-5.03125 9.0 -13.890625 13.90625q-8.859375 4.890625 -20.078125 4.890625q-15.5625 0 -24.625 -10.375l0 37.296875l-18.0 0l0 -104.828125l17.125 0l0 10.078125q4.46875 -5.46875 11.015625 -8.203125q6.5625 -2.75 14.484375 -2.75zm-2.015625 63.359375q9.9375 0 16.34375 -6.609375q6.40625 -6.625 6.40625 -17.4375q0 -10.796875 -6.40625 -17.421875q-6.40625 -6.625 -16.34375 -6.625q-6.484375 0 -11.671875 2.953125q-5.1875 2.953125 -8.21875 8.4375q-3.015625 5.46875 -3.015625 12.65625q0 7.203125 3.015625 12.6875q3.03125 5.46875 8.21875 8.421875q5.1875 2.9375 11.671875 2.9375zm100.79965 -63.359375q11.21875 0 20.078125 4.90625q8.859375 4.890625 13.890625 13.828125q5.046875 8.921875 5.046875 20.578125q0 11.671875 -5.046875 20.671875q-5.03125 9.0 -13.890625 13.90625q-8.859375 4.890625 -20.078125 4.890625q-15.5625 0 -24.625 -10.375l0 37.296875l-18.0 0l0 -104.828125l17.125 0l0 10.078125q4.46875 -5.46875 11.015625 -8.203125q6.5625 -2.75 14.484375 -2.75zm-2.015625 63.359375q9.9375 0 16.34375 -6.609375q6.40625 -6.625 6.40625 -17.4375q0 -10.796875 -6.40625 -17.421875q-6.40625 -6.625 -16.34375 -6.625q-6.484375 0 -11.671875 2.953125q-5.1875 2.953125 -8.21875 8.4375q-3.015625 5.46875 -3.015625 12.65625q0 7.203125 3.015625 12.6875q3.03125 5.46875 8.21875 8.421875q5.1875 2.9375 11.671875 2.9375zm192.23117 14.40625l-0.140625 -66.8125l-33.125 55.296875l-8.34375 0l-33.125 -54.4375l0 65.953125l-17.859375 0l0 -100.796875l15.40625 0l40.03125 66.8125l39.3125 -66.8125l15.4219055 0l0.140625 100.796875l-17.71878 0zm72.58255 -77.765625q16.984375 0 25.984375 8.140625q9.0 8.140625 9.0 24.546875l0 45.078125l-16.984375 0l0 -9.359375q-3.3125 5.046875 -9.4375 7.71875q-6.125 2.65625 -14.765625 2.65625q-8.625 0 -15.109375 -2.953125q-6.484375 -2.953125 -10.015625 -8.203125q-3.515625 -5.265625 -3.515625 -11.890625q0 -10.375 7.703125 -16.625q7.703125 -6.265625 24.25 -6.265625l19.875 0l0 -1.15625q0 -8.0625 -4.828125 -12.375q-4.8125 -4.328125 -14.3125 -4.328125q-6.484375 0 -12.75 2.015625q-6.265625 2.015625 -10.578125 5.609375l-7.0625 -13.09375q6.046875 -4.609375 14.546875 -7.0625q8.5 -2.453125 18.0 -2.453125zm-2.453125 65.671875q6.765625 0 12.015625 -3.09375q5.265625 -3.09375 7.421875 -8.859375l0 -8.921875l-18.578125 0q-15.546875 0 -15.546875 10.21875q0 4.890625 3.890625 7.78125q3.890625 2.875 10.796875 2.875zm77.611206 -53.5625q7.78125 -12.109375 27.359375 -12.109375l0 17.140625q-2.296875 -0.4375 -4.171875 -0.4375q-10.515625 0 -16.421875 6.125q-5.890625 6.125 -5.890625 17.640625l0 37.296875l-18.0 0l0 -76.890625l17.125 0l0 11.234375zm117.515015 -11.234375l-36.0 83.078125q-5.046875 12.53125 -12.25 17.640625q-7.1875 5.109375 -17.421875 5.109375q-5.75 0 -11.375 -1.875q-5.609375 -1.859375 -9.21875 -5.171875l7.203125 -13.25q2.59375 2.453125 6.125 3.890625q3.53125 1.4375 7.125 1.4375q4.75 0 7.84375 -2.453125q3.09375 -2.4375 5.6875 -8.203125l1.296875 -3.03125l-33.546875 -77.171875l18.71875 0l24.1875 56.875l24.34375 -56.875l17.28125 0zm11.232056 -29.953125l18.0 0l0 106.84375l-18.0 0l0 -106.84375zm70.99103 29.078125q16.984375 0 25.984375 8.140625q9.0 8.140625 9.0 24.546875l0 45.078125l-16.984375 0l0 -9.359375q-3.3125 5.046875 -9.4375 7.71875q-6.125 2.65625 -14.765625 2.65625q-8.625 0 -15.109375 -2.953125q-6.484375 -2.953125 -10.015625 -8.203125q-3.515625 -5.265625 -3.515625 -11.890625q0 -10.375 7.703125 -16.625q7.703125 -6.265625 24.25 -6.265625l19.875 0l0 -1.15625q0 -8.0625 -4.828125 -12.375q-4.8125 -4.328125 -14.3125 -4.328125q-6.484375 0 -12.75 2.015625q-6.265625 2.015625 -10.578125 5.609375l-7.0625 -13.09375q6.046875 -4.609375 14.546875 -7.0625q8.5 -2.453125 18.0 -2.453125zm-2.453125 65.671875q6.765625 0 12.015625 -3.09375q5.265625 -3.09375 7.421875 -8.859375l0 -8.921875l-18.578125 0q-15.546875 0 -15.546875 10.21875q0 4.890625 3.890625 7.78125q3.890625 2.875 10.796875 2.875zm104.111145 -65.671875q14.546875 0 23.328125 8.5q8.78125 8.5 8.78125 25.203125l0 44.0625l-18.0 0l0 -41.765625q0 -10.078125 -4.75 -15.1875q-4.75 -5.109375 -13.53125 -5.109375q-9.9375 0 -15.703125 5.984375q-5.75 5.96875 -5.75 17.203125l0 38.875l-18.0 0l0 -76.890625l17.125 0l0 9.9375q4.46875 -5.328125 11.234375 -8.0625q6.765625 -2.75 15.265625 -2.75zm131.04755 -29.078125l0 106.84375l-17.28125 0l0 -9.9375q-4.46875 5.46875 -11.03125 8.21875q-6.546875 2.734375 -14.453125 2.734375q-11.09375 0 -19.953125 -4.890625q-8.859375 -4.90625 -13.90625 -13.90625q-5.03125 -9.0 -5.03125 -20.671875q0 -11.65625 5.03125 -20.578125q5.046875 -8.9375 13.90625 -13.828125q8.859375 -4.90625 19.953125 -4.90625q7.625 0 13.953125 2.59375q6.34375 2.59375 10.8125 7.78125l0 -39.453125l18.0 0zm-40.609375 92.4375q6.46875 0 11.65625 -2.9375q5.1875 -2.953125 8.203125 -8.421875q3.03125 -5.484375 3.03125 -12.6875q0 -7.1875 -3.03125 -12.65625q-3.015625 -5.484375 -8.203125 -8.4375q-5.1875 -2.953125 -11.65625 -2.953125q-6.484375 0 -11.671875 2.953125q-5.1875 2.953125 -8.21875 8.4375q-3.015625 5.46875 -3.015625 12.65625q0 7.203125 3.015625 12.6875q3.03125 5.46875 8.21875 8.421875q5.1875 2.9375 11.671875 2.9375z" fill-rule="nonzero"/></g></svg>